<mxfile host="app.diagrams.net" modified="2022-12-23T02:55:33.794Z" agent="5.0 (Windows NT 10.0; Win64; x64) AppleWebKit/537.36 (KHTML, like Gecko) Chrome/108.0.0.0 Safari/537.36 Edg/108.0.1462.54" version="20.7.4" etag="AfIgEQ2Oey2ARGWcI5Zg" type="github">
  <diagram id="PEcvKZte1JU6ZSeTWFiZ" name="Page-1">
    <mxGraphModel dx="1242" dy="573" grid="1" gridSize="10" guides="1" tooltips="1" connect="1" arrows="1" fold="1" page="1" pageScale="1" pageWidth="850" pageHeight="1100" math="0" shadow="0">
      <root>
        <mxCell id="0" />
        <mxCell id="1" parent="0" />
        <mxCell id="KS-y_-sg2TIVgeEcBtfp-3" value="" style="edgeStyle=orthogonalEdgeStyle;rounded=0;orthogonalLoop=1;jettySize=auto;html=1;" edge="1" parent="1" source="KS-y_-sg2TIVgeEcBtfp-1" target="KS-y_-sg2TIVgeEcBtfp-2">
          <mxGeometry relative="1" as="geometry" />
        </mxCell>
        <mxCell id="KS-y_-sg2TIVgeEcBtfp-1" value="START&lt;br&gt;disp_header(header_text: str)" style="ellipse;whiteSpace=wrap;html=1;rounded=0;" vertex="1" parent="1">
          <mxGeometry x="139.07" width="178.12" height="80" as="geometry" />
        </mxCell>
        <mxCell id="KS-y_-sg2TIVgeEcBtfp-5" value="" style="edgeStyle=orthogonalEdgeStyle;rounded=0;orthogonalLoop=1;jettySize=auto;html=1;" edge="1" parent="1" source="KS-y_-sg2TIVgeEcBtfp-2" target="KS-y_-sg2TIVgeEcBtfp-4">
          <mxGeometry relative="1" as="geometry" />
        </mxCell>
        <mxCell id="KS-y_-sg2TIVgeEcBtfp-2" value="Display&amp;nbsp;&lt;span style=&quot;background-color: initial;&quot;&gt;f&quot;&quot;&quot;{sep_header}&lt;/span&gt;&lt;div&gt;{header_text:^{sep_len}}&lt;/div&gt;&lt;div&gt;{sep_header}&quot;&quot;&quot;&lt;/div&gt;" style="shape=parallelogram;perimeter=parallelogramPerimeter;whiteSpace=wrap;html=1;fixedSize=1;" vertex="1" parent="1">
          <mxGeometry x="142.19" y="120" width="171.87" height="60" as="geometry" />
        </mxCell>
        <mxCell id="KS-y_-sg2TIVgeEcBtfp-4" value="END&lt;br&gt;disp_header(header_text: str)" style="ellipse;whiteSpace=wrap;html=1;rounded=0;" vertex="1" parent="1">
          <mxGeometry x="139.07" y="230" width="178.12" height="80" as="geometry" />
        </mxCell>
      </root>
    </mxGraphModel>
  </diagram>
</mxfile>
